<svg width="1622" height="1548" viewBox="0 0 1622 1548" fill="none" xmlns="http://www.w3.org/2000/svg">
<g filter="url(#filter0_i_1_34)">
<path fill-rule="evenodd" clip-rule="evenodd" d="M767.85 1311.32L402.91 1534.35C364.687 1557.52 315.088 1545.71 291.881 1508.01C280.505 1489.38 277.32 1467.13 282.325 1446.23L339.205 1224.11C359.227 1144.16 414.286 1076.93 488.912 1041.05L887.07 850.268C905.727 841.637 913.462 819.379 904.361 800.756C897.536 785.766 881.155 777.589 864.773 780.315L421.567 856.627C331.469 872.525 239.097 847.542 169.021 788.945L28.8694 671.751C-5.25841 643.134 -9.80873 592.713 18.8587 558.645C32.9647 541.838 52.9864 531.845 74.3732 530.028L502.108 496.414C532.141 494.143 558.533 475.065 570.364 447.356L735.088 49.4418C752.379 8.56026 799.248 -10.9721 840.656 6.28908C860.223 14.0111 876.149 29.9095 884.34 49.4418L1049.06 447.356C1060.89 475.065 1087.29 494.143 1117.32 496.414L1547.33 530.028C1591.92 533.662 1624.69 572.273 1621.5 616.788C1619.68 638.137 1609.67 657.67 1593.29 671.751L1265.21 950.655C1242.45 970.187 1231.99 1001.08 1239.27 1030.6L1340.29 1448.96C1350.75 1492.11 1323.91 1535.72 1280.68 1545.71C1259.75 1550.71 1237.9 1547.53 1219.7 1536.17L851.577 1311.32C826.095 1295.42 793.332 1295.42 767.85 1311.32Z" fill="#008BFF"/>
<path fill-rule="evenodd" clip-rule="evenodd" d="M767.85 1311.32L402.91 1534.35C364.687 1557.52 315.088 1545.71 291.881 1508.01C280.505 1489.38 277.32 1467.13 282.325 1446.23L339.205 1224.11C359.227 1144.16 414.286 1076.93 488.912 1041.05L887.07 850.268C905.727 841.637 913.462 819.379 904.361 800.756C897.536 785.766 881.155 777.589 864.773 780.315L421.567 856.627C331.469 872.525 239.097 847.542 169.021 788.945L28.8694 671.751C-5.25841 643.134 -9.80873 592.713 18.8587 558.645C32.9647 541.838 52.9864 531.845 74.3732 530.028L502.108 496.414C532.141 494.143 558.533 475.065 570.364 447.356L735.088 49.4418C752.379 8.56026 799.248 -10.9721 840.656 6.28908C860.223 14.0111 876.149 29.9095 884.34 49.4418L1049.06 447.356C1060.89 475.065 1087.29 494.143 1117.32 496.414L1547.33 530.028C1591.92 533.662 1624.69 572.273 1621.5 616.788C1619.68 638.137 1609.67 657.67 1593.29 671.751L1265.21 950.655C1242.45 970.187 1231.99 1001.08 1239.27 1030.6L1340.29 1448.96C1350.75 1492.11 1323.91 1535.72 1280.68 1545.71C1259.75 1550.71 1237.9 1547.53 1219.7 1536.17L851.577 1311.32C826.095 1295.42 793.332 1295.42 767.85 1311.32Z" fill="url(#paint0_linear_1_34)"/>
</g>
<path d="M742.018 52.3105C757.732 15.2363 800.219 -2.44155 837.771 13.2119L837.837 13.2393L837.903 13.2656C855.53 20.2223 869.989 34.6147 877.423 52.3418L1042.13 450.225L1042.15 450.264L1042.17 450.302C1055.08 480.551 1083.89 501.399 1116.73 503.891V503.892L1546.72 537.503V537.504C1587.16 540.799 1616.89 575.768 1614.02 616.196C1612.36 635.558 1603.29 653.264 1588.4 666.063L1260.35 944.94L1260.33 944.952L1260.32 944.964C1235.5 966.274 1224.02 1000.01 1231.98 1032.36V1032.36L1333 1450.72L1333 1450.72C1342.48 1489.83 1318.14 1529.35 1278.99 1538.4L1278.96 1538.41L1278.94 1538.42C1259.86 1542.97 1240.09 1540.05 1223.67 1529.81L1223.64 1529.79L1223.61 1529.77L855.486 1304.92H855.485C828.019 1287.82 792.889 1287.56 765.194 1304.16L763.939 1304.92L399.022 1527.94C364.278 1549 319.285 1538.22 298.268 1504.08C287.977 1487.22 285.065 1467.02 289.611 1448.01L346.471 1225.97L346.476 1225.95L346.48 1225.93C365.955 1148.17 419.523 1082.74 492.152 1047.81L492.153 1047.81L890.311 857.031L890.31 857.03C912.731 846.597 921.941 819.905 911.187 797.647H911.188C902.87 779.38 883.061 769.669 863.542 772.916L863.501 772.924L420.294 849.236L420.278 849.238L420.264 849.241C332.362 864.752 242.224 840.38 173.832 783.191L33.6875 666.004H33.6885C2.71613 640.033 -1.38062 594.347 24.5977 563.475L24.6035 563.467C37.3804 548.244 55.5313 539.16 74.9893 537.502L502.695 503.891C535.54 501.399 564.346 480.55 577.262 450.302L577.277 450.264L577.294 450.225L742.018 52.3105Z" stroke="url(#paint1_linear_1_34)" stroke-width="15"/>
<defs>
<filter id="filter0_i_1_34" x="0" y="0" width="1621.71" height="1606" filterUnits="userSpaceOnUse" color-interpolation-filters="sRGB">
<feFlood flood-opacity="0" result="BackgroundImageFix"/>
<feBlend mode="normal" in="SourceGraphic" in2="BackgroundImageFix" result="shape"/>
<feColorMatrix in="SourceAlpha" type="matrix" values="0 0 0 0 0 0 0 0 0 0 0 0 0 0 0 0 0 0 127 0" result="hardAlpha"/>
<feOffset dy="58"/>
<feGaussianBlur stdDeviation="42.5"/>
<feComposite in2="hardAlpha" operator="arithmetic" k2="-1" k3="1"/>
<feColorMatrix type="matrix" values="0 0 0 0 0.976471 0 0 0 0 0.996078 0 0 0 0 0.364706 0 0 0 0.29 0"/>
<feBlend mode="normal" in2="shape" result="effect1_innerShadow_1_34"/>
</filter>
<linearGradient id="paint0_linear_1_34" x1="1158" y1="140" x2="350.5" y2="1514" gradientUnits="userSpaceOnUse">
<stop stop-color="#FFCA00"/>
<stop offset="1" stop-color="#FF9B00"/>
</linearGradient>
<linearGradient id="paint1_linear_1_34" x1="810.857" y1="0" x2="810.857" y2="1548" gradientUnits="userSpaceOnUse">
<stop stop-color="#FF9F00"/>
<stop offset="1" stop-color="#EFA104"/>
</linearGradient>
</defs>
</svg>
