<svg xmlns="http://www.w3.org/2000/svg" viewBox="0 0 32 32" role="img" aria-label="Discord">
  <path fill="#B5BDC9" d="M24.3 9.3A19.2 19.2 0 0 0 19.6 8l-.2.4c1.7.4 2.5 1 2.5 1s-2.1-1.2-5.9-1.2-5.9 1.2-5.9 1.2.8-.6 2.5-1L12.4 8a19.2 19.2 0 0 0-4.7 1.3C4.8 13.6 4 17.8 4.4 22c2 1.5 4 2.4 5.9 3l1.2-2c-.7-.3-1.4-.6-2-1 .2.1 2.5 1.6 6.5 1.6s6.3-1.5 6.5-1.6c-.6.4-1.3.8-2 1l1.2 2c1.9-.6 3.9-1.5 5.9-3 .5-4.8-.9-8.9-3.3-12.7ZM12.1 19.7c-1.1 0-2-1-2-2.2s.9-2.2 2-2.2 2 1 2 2.2-.9 2.2-2 2.2Zm7.8 0c-1.1 0-2-1-2-2.2s.9-2.2 2-2.2 2 1 2 2.2-.9 2.2-2 2.2Z"/>
</svg>
