<svg width="2923" height="966" viewBox="-20 -20 2963 1006" fill="none" xmlns="http://www.w3.org/2000/svg">
<path d="M46.3367 768.429V245.374H255.244C409.962 245.374 530.123 354.541 530.123 507.687C530.123 660.834 406.035 768.429 255.244 768.429H46.3367ZM245.82 360.038H175.922V656.122H245.82C330.64 656.122 399.752 593.292 399.752 507.687C399.752 422.868 332.21 360.038 245.82 360.038ZM565.526 768.429V355.326H688.829V768.429H565.526ZM626.785 189.613C666.838 189.613 695.897 216.316 695.897 253.228C695.897 290.926 664.482 316.058 626.785 316.058C588.302 316.058 557.672 290.926 557.672 253.228C557.672 216.316 587.516 189.613 626.785 189.613ZM1046.61 562.663C1046.61 506.116 1004.98 466.063 949.221 466.063C895.816 466.063 854.192 506.116 854.192 562.663C854.192 619.209 895.816 661.619 949.221 661.619C1003.41 661.619 1046.61 619.209 1046.61 562.663ZM949.221 352.184H1176.19V461.351H1121.22C1153.42 482.555 1173.84 524.965 1173.84 562.663C1173.84 685.18 1070.95 773.141 949.221 773.141C927.231 773.141 903.67 770.785 882.465 765.288C876.967 763.717 873.04 763.717 867.543 763.717C853.406 763.717 840.055 770 834.557 784.137C829.06 802.2 836.128 817.907 855.762 827.332C884.035 839.112 919.377 841.468 949.221 841.468C1019.12 841.468 1081.16 820.264 1126.71 784.922L1176.19 894.088C1111.79 933.356 1032.47 955.347 949.221 955.347C909.167 955.347 865.187 949.849 826.704 937.283C771.728 919.22 740.313 870.527 740.313 821.834C740.313 782.566 762.304 742.512 807.855 725.234C758.377 688.322 727.747 631.775 727.747 562.663C727.747 440.146 824.348 352.184 949.221 352.184ZM1215.2 768.429V355.326H1338.51V768.429H1215.2ZM1276.46 189.613C1316.52 189.613 1345.57 216.316 1345.57 253.228C1345.57 290.926 1314.16 316.058 1276.46 316.058C1237.98 316.058 1207.35 290.926 1207.35 253.228C1207.35 216.316 1237.19 189.613 1276.46 189.613ZM1395.49 768.429V358.467H1521.15V422.868C1546.28 379.672 1596.54 352.184 1641.31 352.184C1693.14 352.184 1728.48 381.243 1749.69 422.868C1776.39 391.453 1822.73 352.184 1895.77 352.184C1976.66 352.184 2030.06 415.799 2030.06 518.682V768.429H1902.84C1902.84 698.532 1902.84 597.219 1902.84 526.536C1902.84 490.409 1880.06 459.78 1843.15 459.78C1800.74 459.78 1775.61 503.76 1775.61 539.887V768.429H1649.95V526.536C1649.95 490.409 1626.39 459.78 1590.26 459.78C1546.28 459.78 1521.15 503.76 1521.15 539.887V768.429H1395.49ZM2382.74 563.448C2382.74 506.116 2339.55 466.063 2285.36 466.063C2230.38 466.063 2186.4 506.116 2186.4 563.448C2186.4 619.995 2231.95 661.619 2285.36 661.619C2338.76 661.619 2382.74 619.995 2382.74 563.448ZM2062.31 563.448C2062.31 440.146 2158.91 352.97 2285.36 352.97C2411.02 352.97 2507.62 440.146 2507.62 563.448C2507.62 685.18 2405.52 774.712 2285.36 774.712C2163.63 774.712 2062.31 685.18 2062.31 563.448Z" fill="white"/>
<path d="M2652.66 770.313H2527L2613.07 217H2738.73L2652.66 770.313Z" fill="white"/>
<path d="M2835.99 770.313H2710.33L2796.41 217H2922.06L2835.99 770.313Z" fill="white"/>
</svg>
