<svg width="1083" height="742" viewBox="0 0 1083 742" fill="none" xmlns="http://www.w3.org/2000/svg">
<rect x="7.72917" y="7.72917" width="1066.62" height="726.542" rx="85.0208" fill="#262726" stroke="#222323" stroke-width="15.4583"/>
<path d="M685.615 154.583C802.129 154.583 896.583 250.134 896.583 368C896.583 485.868 802.129 581.418 685.615 581.418C633.397 581.418 585.61 562.225 548.771 530.434C511.931 562.225 464.145 581.418 411.926 581.418C295.412 581.418 200.958 485.867 200.958 368C200.959 250.134 295.412 154.584 411.926 154.583C464.144 154.583 511.931 173.776 548.771 205.567C585.61 173.776 633.397 154.584 685.615 154.583Z" fill="#ED0006"/>
<path d="M685.615 154.583C802.129 154.583 896.583 250.134 896.583 368C896.583 485.868 802.129 581.418 685.615 581.418C633.397 581.418 585.61 562.225 548.771 530.434C594.131 491.289 622.895 433.043 622.895 368C622.895 302.958 594.132 244.711 548.771 205.567C585.61 173.776 633.397 154.584 685.615 154.583Z" fill="#F9A000"/>
<path d="M548.771 205.568C594.132 244.712 622.894 302.958 622.895 368C622.895 433.043 594.131 491.288 548.771 530.433C503.412 491.288 474.648 433.043 474.648 368C474.649 302.958 503.411 244.712 548.771 205.568Z" fill="#FF5E00"/>
</svg>
