<svg width="1083" height="742" viewBox="0 0 1083 742" fill="none" xmlns="http://www.w3.org/2000/svg">
<rect x="7.72917" y="7.72917" width="1066.62" height="726.542" rx="85.0208" fill="white" stroke="#D9D9D9" stroke-width="15.4583"/>
<path fill-rule="evenodd" clip-rule="evenodd" d="M210.181 260.038C217.444 259.994 239.03 258.05 248.173 288.909C254.332 309.696 264.144 343.746 277.607 391.059H283.09C297.527 341.178 307.446 307.128 312.844 288.909C322.083 257.729 345.179 260.038 354.418 260.038L425.696 260.039V481.765H353.047V351.098H348.176L307.678 481.765H253.019L212.52 351.001H207.649V481.765H135V260.039L210.181 260.038ZM530.018 260.039V390.803H535.814L585.076 283.276C594.639 261.878 615.02 260.039 615.02 260.039H685.322V481.766H611.156V351.001H605.361L557.064 458.528C547.502 479.829 526.155 481.766 526.155 481.766H455.852V260.039H530.018ZM941.673 365.405C931.328 394.721 898.839 415.717 862.87 415.717H785.092V481.766H714.565V365.405H941.673Z" fill="#0F754E"/>
<path fill-rule="evenodd" clip-rule="evenodd" d="M866.271 260.039H710.865C714.564 309.403 757.075 351.662 801.083 351.662H946.573C954.969 310.635 926.066 260.039 866.271 260.039Z" fill="url(#paint0_linear_27_222)"/>
<defs>
<linearGradient id="paint0_linear_27_222" x1="948" y1="317.674" x2="710.865" y2="317.674" gradientUnits="userSpaceOnUse">
<stop stop-color="#1F5CD7"/>
<stop offset="1" stop-color="#02AEFF"/>
</linearGradient>
</defs>
</svg>
