<svg width="1083" height="742" viewBox="0 0 1083 742" fill="none" xmlns="http://www.w3.org/2000/svg">
<rect x="7.72917" y="7.72917" width="1066.62" height="726.542" rx="85.0208" fill="#262726" stroke="#222323" stroke-width="15.4583"/>
<path fill-rule="evenodd" clip-rule="evenodd" d="M328.498 502.651H262.944L213.787 315.114C211.454 306.487 206.5 298.861 199.213 295.266C181.027 286.233 160.987 279.044 139.125 275.419V268.199H244.726C259.301 268.199 270.232 279.044 272.053 291.641L297.559 426.917L363.08 268.199H426.812L328.498 502.651ZM463.248 502.651H401.338L452.317 268.199H514.226L463.248 502.651ZM594.322 333.149C596.144 320.522 607.075 313.301 619.828 313.301C639.868 311.489 661.697 315.114 679.916 324.116L690.846 273.637C672.628 266.417 652.588 262.792 634.402 262.792C574.314 262.792 530.591 295.267 530.591 340.338C530.591 374.626 561.562 392.629 583.423 403.475C607.075 414.29 616.184 421.51 614.362 432.325C614.362 448.546 596.144 455.767 577.958 455.767C556.096 455.767 534.234 450.359 514.226 441.326L503.296 491.836C525.157 500.838 548.809 504.464 570.671 504.464C638.046 506.245 679.916 473.801 679.916 425.104C679.916 363.78 594.322 360.186 594.322 333.149V333.149ZM896.583 502.651L847.426 268.199H794.626C783.695 268.199 772.764 275.419 769.12 286.233L678.094 502.651H741.825L754.546 468.394H832.852L840.139 502.651H896.583ZM803.735 331.336L821.921 419.697H770.942L803.735 331.336Z" fill="white"/>
</svg>
